<svg width="25" height="24" viewBox="0 0 25 24" fill="none" xmlns="http://www.w3.org/2000/svg">
<g id="apple-fill">
<path id="Vector" d="M11.9234 7.2221C11.0474 7.2221 9.69138 6.2261 8.26338 6.2621C6.37938 6.2861 4.65138 7.35409 3.67938 9.04609C1.72338 12.4421 3.17538 17.4581 5.08338 20.2181C6.01938 21.5621 7.12338 23.0741 8.58738 23.0261C9.99138 22.9661 10.5194 22.1141 12.2234 22.1141C13.9154 22.1141 14.3954 23.0261 15.8834 22.9901C17.3954 22.9661 18.3554 21.6221 19.2794 20.2661C20.3474 18.7061 20.7914 17.1941 20.8154 17.1101C20.7794 17.0981 17.8754 15.9821 17.8394 12.6221C17.8154 9.81409 20.1314 8.4701 20.2394 8.4101C18.9194 6.4781 16.8914 6.2621 16.1834 6.2141C14.3354 6.0701 12.7874 7.2221 11.9234 7.2221ZM15.0434 4.3901C15.8234 3.4541 16.3394 2.1461 16.1954 0.850098C15.0794 0.898098 13.7354 1.5941 12.9314 2.5301C12.2114 3.3581 11.5874 4.6901 11.7554 5.9621C12.9914 6.0581 14.2634 5.3261 15.0434 4.3901Z" fill="white"/>
</g>
</svg>
