<svg width="25" height="24" viewBox="0 0 25 24" fill="none" xmlns="http://www.w3.org/2000/svg">
<path d="M21.375 22.75H3.375C2.965 22.75 2.625 22.41 2.625 22C2.625 21.59 2.965 21.25 3.375 21.25H21.375C21.785 21.25 22.125 21.59 22.125 22C22.125 22.41 21.785 22.75 21.375 22.75Z" fill="#A3A1A3" fill-opacity="0.6"/>
<path d="M5.975 8.37988H4.375C3.825 8.37988 3.375 8.82988 3.375 9.37988V17.9999C3.375 18.5499 3.825 18.9999 4.375 18.9999H5.975C6.525 18.9999 6.975 18.5499 6.975 17.9999V9.37988C6.975 8.81988 6.525 8.37988 5.975 8.37988Z" fill="#A3A1A3" fill-opacity="0.6"/>
<path d="M13.175 5.18994H11.575C11.025 5.18994 10.575 5.63994 10.575 6.18994V17.9999C10.575 18.5499 11.025 18.9999 11.575 18.9999H13.175C13.725 18.9999 14.175 18.5499 14.175 17.9999V6.18994C14.175 5.63994 13.725 5.18994 13.175 5.18994Z" fill="#A3A1A3" fill-opacity="0.6"/>
<path d="M20.3749 2H18.7749C18.2249 2 17.7749 2.45 17.7749 3V18C17.7749 18.55 18.2249 19 18.7749 19H20.3749C20.9249 19 21.3749 18.55 21.3749 18V3C21.3749 2.45 20.9249 2 20.3749 2Z" fill="#A3A1A3" fill-opacity="0.6"/>
</svg>
