<svg width="25" height="25" viewBox="0 0 25 25" fill="none" xmlns="http://www.w3.org/2000/svg">
<g id="vuesax/bold/document">
<g id="document">
<path id="Vector" d="M16.69 2.5H8.31C4.67 2.5 2.5 4.67 2.5 8.31V16.68C2.5 20.33 4.67 22.5 8.31 22.5H16.68C20.32 22.5 22.49 20.33 22.49 16.69V8.31C22.5 4.67 20.33 2.5 16.69 2.5ZM16.25 16.25H8.75C8.34 16.25 8 15.91 8 15.5C8 15.09 8.34 14.75 8.75 14.75H16.25C16.66 14.75 17 15.09 17 15.5C17 15.91 16.66 16.25 16.25 16.25ZM16.25 10.25H8.75C8.34 10.25 8 9.91 8 9.5C8 9.09 8.34 8.75 8.75 8.75H16.25C16.66 8.75 17 9.09 17 9.5C17 9.91 16.66 10.25 16.25 10.25Z" fill="#838496"/>
</g>
</g>
</svg>
