<svg width="25" height="24" viewBox="0 0 25 24" fill="none" xmlns="http://www.w3.org/2000/svg">
<g clip-path="url(#clip0_2345_2220)">
<path d="M23.4254 24.0001C24.1568 24.0001 24.75 23.407 24.75 22.6755V1.32459C24.75 0.592969 24.1568 0 23.4254 0H2.07459C1.34288 0 0.75 0.592969 0.75 1.32459V22.6755C0.75 23.407 1.34288 24.0001 2.07459 24.0001H23.4254Z" fill="#22243D"/>
<mask id="path-2-inside-1_2345_2220" fill="white">
<path d="M17.3094 24.0002V14.7062H20.4292L20.8962 11.0841H17.3094V8.7715C17.3094 7.72281 17.6007 7.00816 19.1046 7.00816L21.0226 7.00731V3.76778C20.6907 3.72362 19.5522 3.625 18.2277 3.625C15.4623 3.625 13.5691 5.31297 13.5691 8.41291V11.0841H10.4414V14.7062H13.5691V24.0002H17.3094Z"/>
</mask>
<path d="M17.3094 24.0002V14.7062H20.4292L20.8962 11.0841H17.3094V8.7715C17.3094 7.72281 17.6007 7.00816 19.1046 7.00816L21.0226 7.00731V3.76778C20.6907 3.72362 19.5522 3.625 18.2277 3.625C15.4623 3.625 13.5691 5.31297 13.5691 8.41291V11.0841H10.4414V14.7062H13.5691V24.0002H17.3094Z" fill="white"/>
<path d="M17.3094 14.7062V13.7062H16.3094V14.7062H17.3094ZM20.4292 14.7062V15.7062H21.3085L21.4209 14.834L20.4292 14.7062ZM20.8962 11.0841L21.888 11.212L22.0334 10.0841H20.8962V11.0841ZM17.3094 11.0841H16.3094V12.0841H17.3094V11.0841ZM19.1046 7.00816V8.00816L19.105 8.00816L19.1046 7.00816ZM21.0226 7.00731L21.023 8.00731L22.0226 8.00687V7.00731H21.0226ZM21.0226 3.76778H22.0226V2.89202L21.1545 2.77652L21.0226 3.76778ZM13.5691 11.0841V12.0841H14.5691V11.0841H13.5691ZM10.4414 11.0841V10.0841H9.44141V11.0841H10.4414ZM10.4414 14.7062H9.44141V15.7062H10.4414V14.7062ZM13.5691 14.7062H14.5691V13.7062H13.5691V14.7062ZM13.5691 24.0002H12.5691V25.0002H13.5691V24.0002ZM18.3094 24.0002V14.7062H16.3094V24.0002H18.3094ZM17.3094 15.7062H20.4292V13.7062H17.3094V15.7062ZM21.4209 14.834L21.888 11.212L19.9044 10.9562L19.4374 14.5783L21.4209 14.834ZM20.8962 10.0841H17.3094V12.0841H20.8962V10.0841ZM18.3094 11.0841V8.7715H16.3094V11.0841H18.3094ZM18.3094 8.7715C18.3094 8.28999 18.3888 8.16348 18.408 8.14065C18.4093 8.13909 18.4289 8.11187 18.5193 8.0803C18.6206 8.04492 18.8018 8.00816 19.1046 8.00816V6.00816C18.2194 6.00816 17.4129 6.21727 16.8781 6.85249C16.3757 7.44916 16.3094 8.20432 16.3094 8.7715H18.3094ZM19.105 8.00816L21.023 8.00731L21.0222 6.00731L19.1041 6.00816L19.105 8.00816ZM22.0226 7.00731V3.76778H20.0226V7.00731H22.0226ZM21.1545 2.77652C20.7727 2.72572 19.5896 2.625 18.2277 2.625V4.625C19.5148 4.625 20.6087 4.72153 20.8907 4.75905L21.1545 2.77652ZM18.2277 2.625C16.6421 2.625 15.2034 3.11232 14.1584 4.14526C13.1103 5.18125 12.5691 6.65621 12.5691 8.41291H14.5691C14.5691 7.06967 14.9745 6.15067 15.5643 5.56769C16.1572 4.98167 17.0479 4.625 18.2277 4.625V2.625ZM12.5691 8.41291V11.0841H14.5691V8.41291H12.5691ZM13.5691 10.0841H10.4414V12.0841H13.5691V10.0841ZM9.44141 11.0841V14.7062H11.4414V11.0841H9.44141ZM10.4414 15.7062H13.5691V13.7062H10.4414V15.7062ZM12.5691 14.7062V24.0002H14.5691V14.7062H12.5691ZM13.5691 25.0002H17.3094V23.0002H13.5691V25.0002Z" fill="white" mask="url(#path-2-inside-1_2345_2220)"/>
</g>
<defs>
<clipPath id="clip0_2345_2220">
<rect width="24" height="24" fill="white" transform="translate(0.75)"/>
</clipPath>
</defs>
</svg>
