<svg width="25" height="24" viewBox="0 0 25 24" fill="none" xmlns="http://www.w3.org/2000/svg">
<g clip-path="url(#clip0_2345_2218)">
<path d="M5.51599 9.765C5.98387 8.34945 6.88685 7.11781 8.09611 6.2458C9.30536 5.37378 10.7591 4.90594 12.25 4.909C13.94 4.909 15.468 5.509 16.668 6.491L20.16 3C18.032 1.145 15.305 0 12.25 0C7.51999 0 3.44799 2.698 1.48999 6.65L5.51599 9.765Z" fill="white"/>
<path d="M16.2901 18.0131C15.2001 18.7161 13.8161 19.0911 12.2501 19.0911C10.7651 19.0941 9.31686 18.63 8.1103 17.7644C6.90373 16.8988 6 15.6757 5.52706 14.2681L1.48706 17.3351C2.47831 19.3414 4.01233 21.0295 5.91488 22.2076C7.81744 23.3858 10.0123 24.0068 12.2501 24.0001C15.1831 24.0001 17.9851 22.9571 20.0841 21.0001L16.2911 18.0131H16.2901Z" fill="white"/>
<path d="M20.084 20.9999C22.279 18.9519 23.704 15.9039 23.704 11.9999C23.704 11.2899 23.595 10.5269 23.432 9.81787H12.25V14.4549H18.686C18.369 16.0139 17.516 17.2209 16.291 18.0129L20.084 20.9999Z" fill="white"/>
<path d="M5.52712 14.2679C5.28247 13.5368 5.15819 12.7708 5.15912 11.9999C5.15912 11.2179 5.28412 10.4669 5.51612 9.7649L1.49012 6.6499C0.666494 8.31259 0.24192 10.1444 0.250116 11.9999C0.250116 13.9199 0.695116 15.7299 1.48712 17.3349L5.52712 14.2679Z" fill="white"/>
</g>
<defs>
<clipPath id="clip0_2345_2218">
<rect width="24" height="24" fill="white" transform="translate(0.25)"/>
</clipPath>
</defs>
</svg>
