<svg width="25" height="24" viewBox="0 0 25 24" fill="none" xmlns="http://www.w3.org/2000/svg">
<path d="M20.915 6.81994L15.155 2.78994C13.585 1.68994 11.175 1.74994 9.66499 2.91994L4.65499 6.82994C3.65499 7.60994 2.86499 9.20994 2.86499 10.4699V17.3699C2.86499 19.9199 4.93499 21.9999 7.48499 21.9999H18.265C20.815 21.9999 22.885 19.9299 22.885 17.3799V10.5999C22.885 9.24994 22.015 7.58994 20.915 6.81994ZM13.625 17.9999C13.625 18.4099 13.285 18.7499 12.875 18.7499C12.465 18.7499 12.125 18.4099 12.125 17.9999V14.9999C12.125 14.5899 12.465 14.2499 12.875 14.2499C13.285 14.2499 13.625 14.5899 13.625 14.9999V17.9999Z" fill="white"/>
</svg>
