<svg width="25" height="24" viewBox="0 0 25 24" fill="none" xmlns="http://www.w3.org/2000/svg">
<g id="linkedin-fill">
<path id="Vector" d="M7.69048 4.99993C7.69011 5.81424 7.19608 6.54702 6.44134 6.85273C5.6866 7.15845 4.82187 6.97605 4.2549 6.39155C3.68793 5.80704 3.53195 4.93715 3.8605 4.19207C4.18906 3.44699 4.93654 2.9755 5.75048 2.99993C6.83155 3.03238 7.69097 3.91837 7.69048 4.99993ZM7.75048 8.47993H3.75048V20.9999H7.75048V8.47993ZM14.0705 8.47993H10.0905V20.9999H14.0305V14.4299C14.0305 10.7699 18.8005 10.4299 18.8005 14.4299V20.9999H22.7505V13.0699C22.7505 6.89993 15.6905 7.12993 14.0305 10.1599L14.0705 8.47993Z" fill="white"/>
</g>
</svg>
