<svg width="18" height="22" viewBox="0 0 18 22" fill="none" xmlns="http://www.w3.org/2000/svg">
<path d="M17.158 6.05273V16.0527C17.158 20.0527 16.158 21.0527 12.158 21.0527H6.15796C2.15796 21.0527 1.15796 20.0527 1.15796 16.0527V6.05273C1.15796 2.05273 2.15796 1.05273 6.15796 1.05273H12.158C16.158 1.05273 17.158 2.05273 17.158 6.05273Z" stroke="white" stroke-width="1.5" stroke-linecap="round" stroke-linejoin="round"/>
<path d="M11.158 4.55273H7.15796" stroke="white" stroke-width="1.5" stroke-linecap="round" stroke-linejoin="round"/>
<path d="M9.15791 18.1527C10.014 18.1527 10.7079 17.4588 10.7079 16.6027C10.7079 15.7467 10.014 15.0527 9.15791 15.0527C8.30187 15.0527 7.60791 15.7467 7.60791 16.6027C7.60791 17.4588 8.30187 18.1527 9.15791 18.1527Z" stroke="white" stroke-width="1.5" stroke-linecap="round" stroke-linejoin="round"/>
</svg>
