<svg width="57" height="66" viewBox="0 0 57 66" fill="none" xmlns="http://www.w3.org/2000/svg">
<path d="M23.4628 0.767346L6.92616 6.97212C3.11512 8.3913 0 12.8799 0 16.9064V41.4284C0 45.3229 2.58488 50.4385 5.73314 52.7818L19.9831 63.3762C24.6558 66.8746 32.3442 66.8746 37.0169 63.3762L51.2669 52.7818C54.4151 50.4385 57 45.3229 57 41.4284V16.9064C57 12.8469 53.8849 8.35829 50.0738 6.93912L33.5372 0.767346C30.7203 -0.255782 26.2134 -0.255782 23.4628 0.767346Z" fill="#31334B"/>
<path d="M41.745 40.456L36.8876 35.5986L40.7026 31.7836L43.2925 34.3735L41.745 40.456ZM40.7026 27.2056L36.8876 23.3906L41.745 18.5333L43.3032 24.605L40.7026 27.2056ZM33.3843 14.6968L39.456 16.255L34.5986 21.1017L30.7836 17.2867L33.3843 14.6968ZM26.2056 17.2974L22.3906 21.1017L17.544 16.255L23.6157 14.6968L26.2056 17.2974ZM15.255 18.544L20.1017 23.3906L16.2867 27.2056L13.6968 24.6157L15.255 18.544ZM16.2974 31.7836L20.1017 35.5986L15.2443 40.456L13.686 34.3843L16.2974 31.7836ZM23.6157 44.2925L17.544 42.7342L22.4014 37.8769L26.2164 41.6918L23.6157 44.2925ZM32.3096 35.5986L28.4946 39.4136L24.6796 35.5986L28.4946 31.7836L32.3096 35.5986ZM34.5986 25.6796L38.4136 29.4946L34.5986 33.3096L30.7836 29.4946L34.5986 25.6796ZM26.2056 29.4946L22.3906 33.3096L18.5757 29.4946L22.3906 25.6796L26.2056 29.4946ZM24.6796 23.3906L28.4946 19.5757L32.3096 23.3906L28.4946 27.2056L24.6796 23.3906ZM30.7836 41.7026L34.5986 37.8876L39.456 42.745L33.3843 44.3032L30.7836 41.7026ZM44.034 45.034L46.9893 33.4923L42.9916 29.4946L47 25.4862L44.034 13.9553L32.503 11L28.4946 15.0084L24.497 11L12.9553 13.9553L10 25.497L14.0084 29.5054L10 33.503L12.9553 45.0447L24.497 48L28.5054 43.9916L32.5138 48L44.034 45.034Z" fill="white"/>
</svg>
