<svg width="24" height="22" viewBox="0 0 24 22" fill="none" xmlns="http://www.w3.org/2000/svg">
<path d="M22.0325 7.87987C21.5949 7.8163 21.1772 7.65482 20.8106 7.40746C20.4441 7.1601 20.138 6.83323 19.9153 6.45119C19.6925 6.06915 19.5589 5.64178 19.5242 5.20091C19.4895 4.76004 19.5547 4.31703 19.715 3.90487C19.8169 3.63541 19.8319 3.34083 19.7579 3.06241C19.684 2.784 19.5247 2.53571 19.3025 2.35237C18.3215 1.52862 17.2049 0.881501 16.0025 0.439869C15.7287 0.338156 15.4298 0.325448 15.1483 0.403555C14.8669 0.481662 14.6173 0.646599 14.435 0.874869C14.1607 1.22561 13.8102 1.50928 13.4099 1.70438C13.0097 1.89947 12.5703 2.00086 12.125 2.00086C11.6798 2.00086 11.2403 1.89947 10.8401 1.70438C10.4399 1.50928 10.0893 1.22561 9.81502 0.874869C9.63278 0.646599 9.38316 0.481662 9.1017 0.403555C8.82025 0.325448 8.52133 0.338156 8.24752 0.439869C7.13727 0.847601 6.09921 1.42993 5.17252 2.16487C4.93892 2.34979 4.77067 2.60464 4.6924 2.89211C4.61412 3.17957 4.62993 3.48454 4.73752 3.76237C4.91058 4.18544 4.98209 4.64318 4.9463 5.09887C4.9105 5.55456 4.76841 5.99552 4.53142 6.38638C4.29442 6.77724 3.96912 7.10712 3.58161 7.34955C3.1941 7.59198 2.75517 7.74022 2.30002 7.78237C2.00452 7.81396 1.72698 7.9396 1.50825 8.14077C1.28952 8.34195 1.14116 8.60804 1.08502 8.89987C0.945364 9.59114 0.875016 10.2946 0.875016 10.9999C0.87399 11.5903 0.921651 12.1798 1.01752 12.7624C1.06523 13.0635 1.21083 13.3406 1.4318 13.5507C1.65278 13.7609 1.93682 13.8924 2.24002 13.9249C2.70516 13.9685 3.15308 14.123 3.54629 14.3752C3.9395 14.6275 4.26656 14.9704 4.50009 15.375C4.73362 15.7796 4.86682 16.2343 4.88856 16.701C4.91029 17.1677 4.81993 17.6328 4.62502 18.0574C4.49746 18.3335 4.46582 18.6444 4.53512 18.9406C4.60442 19.2369 4.77068 19.5014 5.00752 19.6924C5.9826 20.5012 7.08845 21.1378 8.27752 21.5749C8.42957 21.6275 8.58911 21.6554 8.75002 21.6574C8.97064 21.6569 9.18794 21.6035 9.38369 21.5017C9.57943 21.3999 9.74792 21.2527 9.87502 21.0724C10.1423 20.6829 10.5007 20.3646 10.9189 20.145C11.3371 19.9254 11.8026 19.8112 12.275 19.8124C12.7327 19.8129 13.1839 19.9204 13.5928 20.1261C14.0016 20.3318 14.3568 20.6302 14.63 20.9974C14.8117 21.2417 15.0692 21.419 15.3622 21.5017C15.6552 21.5845 15.9673 21.568 16.25 21.4549C17.3373 21.0173 18.3495 20.4125 19.25 19.6624C19.4762 19.4753 19.6373 19.2214 19.7101 18.937C19.7829 18.6527 19.7636 18.3526 19.655 18.0799C19.4786 17.6623 19.4017 17.2094 19.4303 16.7569C19.459 16.3045 19.5924 15.8649 19.8201 15.4729C20.0477 15.0808 20.3634 14.7471 20.7421 14.4979C21.1209 14.2488 21.5524 14.0911 22.0025 14.0374C22.2944 13.997 22.5659 13.8648 22.7776 13.6598C22.9893 13.4548 23.1302 13.1878 23.18 12.8974C23.3005 12.2718 23.3657 11.6369 23.375 10.9999C23.3752 10.328 23.3124 9.65755 23.1875 8.99737C23.1369 8.71334 22.998 8.4525 22.7907 8.25189C22.5833 8.05128 22.3181 7.92111 22.0325 7.87987ZM15.875 10.9999C15.875 11.7415 15.6551 12.4666 15.243 13.0833C14.831 13.6999 14.2453 14.1806 13.5601 14.4644C12.8749 14.7482 12.1209 14.8225 11.3934 14.6778C10.666 14.5331 9.99781 14.176 9.47337 13.6515C8.94892 13.1271 8.59177 12.4589 8.44707 11.7315C8.30238 11.004 8.37664 10.25 8.66047 9.56481C8.9443 8.87958 9.42494 8.29391 10.0416 7.88186C10.6583 7.4698 11.3833 7.24987 12.125 7.24987C13.1196 7.24987 14.0734 7.64496 14.7767 8.34822C15.4799 9.05148 15.875 10.0053 15.875 10.9999Z" fill="white"/>
</svg>
