<svg width="25" height="24" viewBox="0 0 25 24" fill="none" xmlns="http://www.w3.org/2000/svg">
<path d="M22.2857 8.52684C21.8481 8.46327 21.4304 8.3018 21.0638 8.05443C20.6972 7.80707 20.3912 7.4802 20.1685 7.09816C19.9457 6.71612 19.812 6.28875 19.7774 5.84788C19.7427 5.40702 19.8079 4.96401 19.9682 4.55184C20.0701 4.28239 20.0851 3.9878 20.0111 3.70939C19.9371 3.43097 19.7779 3.18269 19.5557 2.99934C18.5747 2.17559 17.4581 1.52847 16.2557 1.08684C15.9819 0.985129 15.683 0.972421 15.4015 1.05053C15.1201 1.12863 14.8704 1.29357 14.6882 1.52184C14.4139 1.87258 14.0633 2.15626 13.6631 2.35135C13.2629 2.54645 12.8234 2.64784 12.3782 2.64784C11.9329 2.64784 11.4935 2.54645 11.0933 2.35135C10.693 2.15626 10.3425 1.87258 10.0682 1.52184C9.88596 1.29357 9.63633 1.12863 9.35488 1.05053C9.07342 0.972421 8.7745 0.985129 8.50069 1.08684C7.39044 1.49457 6.35238 2.0769 5.42569 2.81184C5.1921 2.99677 5.02385 3.25162 4.94557 3.53908C4.86729 3.82654 4.88311 4.13152 4.99069 4.40934C5.16376 4.83241 5.23526 5.29015 5.19947 5.74584C5.16368 6.20153 5.02159 6.6425 4.78459 7.03336C4.5476 7.42421 4.2223 7.75409 3.83478 7.99652C3.44727 8.23895 3.00834 8.38719 2.55319 8.42934C2.2577 8.46094 1.98015 8.58657 1.76142 8.78775C1.54269 8.98892 1.39434 9.25501 1.33819 9.54684C1.19854 10.2381 1.12819 10.9416 1.12819 11.6468C1.12716 12.2373 1.17483 12.8268 1.27069 13.4093C1.3184 13.7105 1.464 13.9876 1.68498 14.1977C1.90595 14.4079 2.18999 14.5393 2.49319 14.5718C2.95834 14.6155 3.40626 14.7699 3.79947 15.0222C4.19268 15.2745 4.51974 15.6173 4.75326 16.022C4.98679 16.4266 5.12 16.8813 5.14173 17.348C5.16347 17.8146 5.0731 18.2798 4.87819 18.7043C4.75064 18.9805 4.719 19.2914 4.78829 19.5876C4.85759 19.8838 5.02386 20.1484 5.26069 20.3393C6.23578 21.1481 7.34162 21.7848 8.53069 22.2218C8.68275 22.2745 8.84229 22.3024 9.00319 22.3043C9.22382 22.3039 9.44112 22.2505 9.63686 22.1487C9.8326 22.0469 10.0011 21.8997 10.1282 21.7193C10.3955 21.3299 10.7538 21.0115 11.1721 20.792C11.5903 20.5724 12.0558 20.4582 12.5282 20.4593C12.9859 20.4599 13.4371 20.5674 13.846 20.7731C14.2548 20.9788 14.61 21.2771 14.8832 21.6443C15.0649 21.8886 15.3223 22.066 15.6154 22.1487C15.9084 22.2315 16.2205 22.215 16.5032 22.1018C17.5905 21.6643 18.6027 21.0595 19.5032 20.3093C19.7294 20.1223 19.8905 19.8684 19.9633 19.584C20.036 19.2997 20.0167 18.9995 19.9082 18.7268C19.7318 18.3092 19.6549 17.8563 19.6835 17.4039C19.7122 16.9515 19.8456 16.5119 20.0732 16.1198C20.3009 15.7278 20.6166 15.394 20.9953 15.1449C21.3741 14.8958 21.8055 14.7381 22.2557 14.6843C22.5476 14.644 22.819 14.5117 23.0307 14.3068C23.2425 14.1018 23.3834 13.8348 23.4332 13.5443C23.5536 12.9188 23.6189 12.2838 23.6282 11.6468C23.6283 10.975 23.5656 10.3045 23.4407 9.64434C23.3901 9.36032 23.2512 9.09947 23.0439 8.89886C22.8365 8.69825 22.5712 8.56808 22.2857 8.52684ZM16.1282 11.6468C16.1282 12.3885 15.9083 13.1135 15.4962 13.7302C15.0841 14.3469 14.4985 14.8276 13.8133 15.1114C13.128 15.3952 12.374 15.4695 11.6466 15.3248C10.9192 15.1801 10.251 14.8229 9.72654 14.2985C9.20209 13.774 8.84494 13.1059 8.70025 12.3784C8.55555 11.651 8.62981 10.897 8.91364 10.2118C9.19747 9.52656 9.67812 8.94089 10.2948 8.52883C10.9115 8.11678 11.6365 7.89684 12.3782 7.89684C13.3728 7.89684 14.3266 8.29193 15.0298 8.99519C15.7331 9.69845 16.1282 10.6523 16.1282 11.6468Z" fill="#A3A1A3" fill-opacity="0.6"/>
</svg>
