<svg width="26" height="25" viewBox="0 0 26 25" fill="none" xmlns="http://www.w3.org/2000/svg">
<g clip-path="url(#clip0_2309_2689)">
<path d="M23.4851 20.1982H19.667C17.261 20.1982 15.3035 18.2406 15.3035 15.8346C15.3035 13.4286 17.261 11.4711 19.667 11.4711H23.4851C23.7866 11.4711 24.0306 11.2271 24.0306 10.9256V9.28927C24.0306 8.14547 23.1434 7.21526 22.0225 7.12506L18.8899 1.65356C18.5996 1.14752 18.1308 0.78584 17.5699 0.635655C17.0117 0.486493 16.4279 0.564832 15.9283 0.85564L5.18966 7.10747H3.30363C2.10036 7.10747 1.12183 8.08595 1.12183 9.28927V22.38C1.12183 23.5832 2.1003 24.5618 3.30363 24.5618H21.8488C23.0521 24.5618 24.0306 23.5833 24.0306 22.38V20.7436C24.0306 20.4421 23.7866 20.1982 23.4851 20.1982ZM19.5664 5.03157L20.7549 7.10747H16.0007L19.5664 5.03157ZM7.35781 7.10747L16.4774 1.79843C16.724 1.65407 17.0122 1.61572 17.2876 1.68925C17.5662 1.76381 17.7985 1.94386 17.9428 2.1958L17.9439 2.19779L9.51118 7.10747H7.35781Z" fill="#A3A1A3" fill-opacity="0.6"/>
<path d="M23.4851 12.562H19.667C17.8623 12.562 16.3943 14.03 16.3943 15.8347C16.3943 17.6393 17.8623 19.1073 19.667 19.1073H23.4851C24.3874 19.1073 25.1214 18.3733 25.1214 17.471V14.1983C25.1214 13.296 24.3874 12.562 23.4851 12.562ZM19.667 16.9255C19.0656 16.9255 18.5761 16.436 18.5761 15.8347C18.5761 15.2333 19.0656 14.7438 19.667 14.7438C20.2683 14.7438 20.7578 15.2333 20.7578 15.8347C20.7579 16.436 20.2684 16.9255 19.667 16.9255Z" fill="#A3A1A3" fill-opacity="0.6"/>
</g>
<defs>
<clipPath id="clip0_2309_2689">
<rect width="24" height="24" fill="white" transform="translate(1.12158 0.561768)"/>
</clipPath>
</defs>
</svg>
