<svg width="25" height="24" viewBox="0 0 25 24" fill="none" xmlns="http://www.w3.org/2000/svg">
<g clip-path="url(#clip0_2309_2815)">
<path d="M22.9886 19.6364H19.1704C16.7644 19.6364 14.8069 17.6789 14.8069 15.2728C14.8069 12.8668 16.7644 10.9093 19.1704 10.9093H22.9886C23.2901 10.9093 23.534 10.6653 23.534 10.3638V8.7275C23.534 7.5837 22.6468 6.6535 21.5259 6.56329L18.3933 1.09179C18.103 0.585754 17.6343 0.224073 17.0734 0.0738875C16.5151 -0.0752748 15.9313 0.00306481 15.4317 0.293873L4.69308 6.5457H2.80704C1.60377 6.5457 0.625244 7.52418 0.625244 8.7275V21.8182C0.625244 23.0215 1.60372 24 2.80704 24H21.3522C22.5555 24 23.534 23.0215 23.534 21.8182V20.1819C23.534 19.8804 23.2901 19.6364 22.9886 19.6364ZM19.0698 4.4698L20.2583 6.5457H15.5042L19.0698 4.4698ZM6.86122 6.5457L15.9808 1.23666C16.2275 1.0923 16.5156 1.05395 16.791 1.12748C17.0696 1.20204 17.3019 1.38209 17.4462 1.63403L17.4474 1.63603L9.01459 6.5457H6.86122Z" fill="white"/>
<path d="M22.9885 12.0002H19.1704C17.3657 12.0002 15.8977 13.4682 15.8977 15.2729C15.8977 17.0776 17.3657 18.5456 19.1704 18.5456H22.9885C23.8909 18.5456 24.6249 17.8116 24.6249 16.9092V13.6366C24.6249 12.7342 23.8909 12.0002 22.9885 12.0002ZM19.1704 16.3638C18.569 16.3638 18.0795 15.8743 18.0795 15.2729C18.0795 14.6716 18.569 14.182 19.1704 14.182C19.7717 14.182 20.2613 14.6716 20.2613 15.2729C20.2613 15.8743 19.7718 16.3638 19.1704 16.3638Z" fill="white"/>
</g>
<defs>
<clipPath id="clip0_2309_2815">
<rect width="24" height="24" fill="white" transform="translate(0.625)"/>
</clipPath>
</defs>
</svg>
